Coordinates
version=1
nRows=13
nColumns=40
inDegrees=yes

Units are S.I. units (second, meters, Newtons, ...)
Angles are in degrees.

endheader
time	pelvis_tilt	pelvis_list	pelvis_rotation	pelvis_tx	pelvis_ty	pelvis_tz	hip_flexion_r	hip_adduction_r	hip_rotation_r	knee_angle_r	knee_angle_r_beta	ankle_angle_r	subtalar_angle_r	mtp_angle_r	hip_flexion_l	hip_adduction_l	hip_rotation_l	knee_angle_l	knee_angle_l_beta	ankle_angle_l	subtalar_angle_l	mtp_angle_l	lumbar_extension	lumbar_bending	lumbar_rotation	arm_flex_r	arm_add_r	arm_rot_r	elbow_flex_r	pro_sup_r	wrist_flex_r	wrist_dev_r	arm_flex_l	arm_add_l	arm_rot_l	elbow_flex_l	pro_sup_l	wrist_flex_l	wrist_dev_l
      1.65000000	     -1.99716215	      1.38026549	     -0.69858743	      0.32679738	      0.94798646	     -1.42494189	     -3.61035941	     -0.87878896	    -17.63334457	    -15.23553956	     -0.26591033	     11.11504820	      2.71390880	    -13.87806093	     23.68155009	      4.67449152	     24.83027534	    -10.77104154	     -0.18799014	     -2.55195212	     -0.54480451	     10.18439769	     -3.50466392	     -3.90664967	      8.51250669	     10.31576858	    -17.64349308	    -13.81331725	     32.96148835	     89.95437384	      0.00000000	      0.00000000	    -16.26895860	      9.59175623	      9.60263170	     13.87638047	     89.95437384	      0.00000000	      0.00000000
      1.66000000	     -1.84041980	      1.56900923	     -1.09854557	      0.33618747	      0.94701365	     -1.42560259	     -4.31539247	     -1.28478970	    -17.66330214	    -15.41403636	     -0.26902569	     11.36725753	      3.11423927	    -14.12223803	     23.48464815	      4.49419176	     25.15554703	     -9.74069357	     -0.17000717	     -3.08771124	     -1.94782059	      9.99031738	     -3.59781518	     -4.11522590	      8.94780322	     10.52311945	    -17.57590912	    -14.40993216	     33.38530844	     89.95437384	      0.00000000	      0.00000000	    -16.55336218	      9.61793986	      9.44938010	     13.74670625	     89.95437384	      0.00000000	      0.00000000
      1.67000000	     -1.67842338	      1.64537486	     -1.46542509	      0.34572365	      0.94596242	     -1.42632941	     -5.02991868	     -1.59093488	    -17.79030699	    -15.60170697	     -0.27230116	     11.57822417	      3.74202467	    -14.43898358	     23.28494932	      4.38119401	     25.10753724	     -8.92681808	     -0.15580237	     -3.15380536	     -2.66087269	      9.66786165	     -3.66881945	     -4.19532607	      9.28574709	     10.75577718	    -17.55987676	    -14.64972701	     33.67702801	     89.95437384	      0.00000000	      0.00000000	    -16.80601888	      9.61683580	      9.24178870	     13.57422890	     89.95437384	      0.00000000	      0.00000000
      1.68000000	     -1.78239663	      1.58378095	     -1.72018083	      0.35505843	      0.94451762	     -1.42714723	     -5.43846844	     -1.69001876	    -17.79068933	    -15.77654512	     -0.27535266	     11.68066529	      3.70908677	    -14.38168519	     23.56985336	      4.45444929	     24.84259359	     -8.70714403	     -0.15196833	     -3.01110513	     -2.78824201	      9.52982791	     -3.45090294	     -4.11835148	      9.50091390	     10.96605505	    -17.54688071	    -14.65934279	     33.85735424	     89.95437384	      0.00000000	      0.00000000	    -17.01913367	      9.60507122	      9.18861016	     13.41339840	     89.95437384	      0.00000000	      0.00000000
      1.69000000	     -1.88883496	      1.58992657	     -1.94195909	      0.36438822	      0.94302173	     -1.42810578	     -5.78124934	     -1.88551645	    -17.65145830	    -16.14255766	     -0.28174078	     11.54189447	      3.60905532	    -14.17555005	     23.94876205	      4.50562670	     24.43754604	     -8.91862604	     -0.15565939	     -2.98544230	     -2.76678477	      9.36922699	     -3.27070240	     -4.13727028	      9.62254078	     11.12281762	    -17.50554552	    -14.63507866	     34.17061907	     89.95437384	      0.00000000	      0.00000000	    -17.33978277	      9.61397551	      9.14980607	     13.49984618	     89.95437384	      0.00000000	      0.00000000
      1.70000000	     -1.32315186	      1.92945521	     -2.27915285	      0.37482823	      0.94290665	     -1.42939685	     -7.10684795	     -2.56671910	    -17.90005655	    -16.09195280	     -0.28085756	     11.88242007	      4.76300233	    -14.63285640	     22.89295772	      3.94218136	     23.68267762	     -8.07710147	     -0.14097201	     -2.86559102	     -2.76920216	      8.97178949	     -3.73534263	     -4.50651309	     10.04849566	     11.14864877	    -17.28614687	    -15.55010729	     34.35529868	     89.95437384	      0.00000000	      0.00000000	    -17.16407180	      9.67435525	      8.88592073	     12.99369757	     89.95437384	      0.00000000	      0.00000000
      1.71000000	     -1.30116763	      2.01116314	     -2.47165664	      0.38471114	      0.94169964	     -1.43084351	     -7.63919770	     -2.96400750	    -18.07207090	    -16.41110613	     -0.28642784	     12.04094353	      5.41666708	    -14.80322096	     22.91062593	      3.78590081	     23.07219419	     -8.31919882	     -0.14519741	     -2.60660159	     -2.29289295	      8.57403662	     -3.62827077	     -4.57481635	     10.19771472	     11.15600271	    -17.17573830	    -15.72574406	     34.56859073	     89.95437384	      0.00000000	      0.00000000	    -17.23416674	      9.70259391	      8.66384091	     12.85186978	     89.95437384	      0.00000000	      0.00000000
      1.72000000	     -1.22235416	      2.25322689	     -2.56477739	      0.39486825	      0.94064220	     -1.43272634	     -8.20237532	     -3.61377967	    -18.55268703	    -16.85264724	     -0.29413418	     12.06115806	      6.43719687	    -15.20565374	     22.78486730	      3.37826251	     22.25884740	     -8.61007266	     -0.15027412	     -2.58998416	     -1.55591099	      8.01997100	     -3.57160260	     -4.80548366	     10.23852516	     11.11811351	    -17.01979433	    -15.95674956	     34.71020875	     89.95437384	      0.00000000	      0.00000000	    -17.23490710	      9.73849423	      8.56589502	     12.70617516	     89.95437384	      0.00000000	      0.00000000
      1.73000000	     -1.36705797	      2.26107414	     -2.70942342	      0.40490235	      0.93923849	     -1.43450884	     -8.45713102	     -3.88358484	    -18.30066964	    -17.34804467	     -0.30278050	     11.80325509	      6.20399308	    -14.90555151	     22.95221649	      3.34751996	     21.79882372	     -9.17929758	     -0.16020897	     -2.65570263	     -1.48460695	      7.85677530	     -3.26045653	     -4.76067406	     10.27296528	     10.97714935	    -16.91936529	    -15.87813644	     34.92067864	     89.95437384	      0.00000000	      0.00000000	    -17.44196509	      9.73525584	      8.53401351	     12.97584005	     89.95437384	      0.00000000	      0.00000000
      1.74000000	     -1.05684617	      2.47536657	     -2.76690917	      0.41564518	      0.93864429	     -1.43660696	     -9.40603536	     -4.48600622	    -18.81037212	    -17.56761406	     -0.30661271	     11.76265215	      6.94538350	    -15.12650943	     22.49205682	      2.97237855	     21.11943229	     -9.77530168	     -0.17061120	     -2.33056034	     -0.93822273	      7.52925447	     -3.42926609	     -4.97070996	     10.35807956	     10.83446609	    -16.70778411	    -16.37375481	     34.93754596	     89.95437384	      0.00000000	      0.00000000	    -17.21007330	      9.79506181	      8.39953543	     12.64670229	     89.95437384	      0.00000000	      0.00000000
      1.75000000	     -1.22733818	      2.47638388	     -2.86992922	      0.42604213	      0.93732502	     -1.43871232	     -9.61864857	     -4.76519011	    -18.48733938	    -18.11986338	     -0.31625128	     11.45379093	      6.68739746	    -14.79937879	     22.54947965	      2.90067293	     20.65698668	    -10.40113103	     -0.18153398	     -2.44293007	     -0.88273029	      7.37265618	     -3.05181218	     -4.90542768	     10.31185466	     10.59203320	    -16.56416020	    -16.27270021	     35.11878141	     89.95437384	      0.00000000	      0.00000000	    -17.39552178	      9.79438055	      8.37341691	     12.97480677	     89.95437384	      0.00000000	      0.00000000
      1.76000000	     -0.73459018	      3.03365179	     -2.85329543	      0.43729590	      0.93712274	     -1.44153363	    -10.69890532	     -5.89871779	    -19.48991049	    -18.59178251	     -0.32448782	     11.25239179	      8.07116646	    -15.24354615	     21.71795547	      2.05454517	     20.09656666	    -10.90595559	     -0.19034483	     -2.66802188	     -0.34415548	      6.77189494	     -3.37277036	     -5.47680805	     10.13809321	     10.50688610	    -16.31445411	    -16.40759520	     34.89872416	     89.95437384	      0.00000000	      0.00000000	    -17.12620999	      9.80939378	      8.67695737	     12.66982681	     89.95437384	      0.00000000	      0.00000000
      1.77000000	     -0.72721045	      3.14497624	     -2.86101086	      0.44809390	      0.93619492	     -1.44398965	    -11.13323254	     -6.35277089	    -19.55614943	    -19.15620518	     -0.33433885	     10.97486496	      7.82212105	    -14.99802366	     21.66205404	      1.88656502	     20.11337063	    -11.86991267	     -0.20716906	     -3.67827320	      0.05512851	      6.72908440	     -3.17490271	     -5.53754755	     10.06493002	     10.19241563	    -16.14874285	    -16.33969505	     34.88300383	     89.95437384	      0.00000000	      0.00000000	    -16.99789377	      9.84940339	      8.59354409	     12.67972782	     89.95437384	      0.00000000	      0.00000000
